<?xml version="1.0" standalone="no"?>
<!DOCTYPE svg PUBLIC "-//W3C//DTD SVG 20010904//EN"
 "http://www.w3.org/TR/2001/REC-SVG-20010904/DTD/svg10.dtd">
<svg version="1.0" xmlns="http://www.w3.org/2000/svg"
 width="646.000000pt" height="132.000000pt" viewBox="0 0 646.000000 132.000000"
 preserveAspectRatio="xMidYMid meet">

<g transform="translate(0.000000,132.000000) scale(0.100000,-0.100000)"
fill="#000000" stroke="none">
<path d="M4488 1268 c-9 -7 -42 -53 -74 -102 -59 -91 -63 -116 -20 -124 39 -8
64 11 127 95 83 110 83 111 69 128 -15 18 -80 20 -102 3z"/>
<path d="M2846 1204 c-19 -18 -22 -94 -4 -112 7 -7 33 -12 60 -12 37 0 50 4
58 19 15 29 12 87 -6 105 -20 21 -88 21 -108 0z"/>
<path d="M6246 1204 c-18 -18 -21 -76 -6 -105 8 -15 21 -19 60 -19 39 0 52 4
60 19 15 29 12 87 -6 105 -20 21 -88 21 -108 0z"/>
<path d="M317 1203 c-4 -3 -7 -157 -7 -342 -1 -185 -5 -356 -9 -380 -15 -73
-58 -89 -137 -49 -53 26 -74 15 -74 -42 0 -59 25 -74 129 -78 108 -4 144 13
181 84 l25 48 3 369 c2 272 0 372 -9 383 -12 14 -90 20 -102 7z"/>
<path d="M2128 1199 c-17 -9 -18 -41 -18 -433 0 -382 2 -425 17 -437 26 -22
332 -19 398 4 109 38 167 119 168 236 1 55 -4 75 -28 120 -17 31 -45 64 -66
78 l-37 24 33 50 c91 134 34 309 -114 353 -63 18 -324 22 -353 5z m312 -115
c48 -20 70 -55 70 -116 0 -55 -30 -105 -75 -124 -21 -8 -68 -14 -120 -14 l-85
0 0 135 0 135 85 0 c55 0 99 -6 125 -16z m54 -389 c67 -32 95 -125 57 -195
-32 -60 -69 -74 -203 -79 l-118 -3 0 152 0 152 113 -4 c83 -3 122 -9 151 -23z"/>
<path d="M3602 1198 c-18 -18 -18 -837 1 -861 11 -16 34 -17 237 -15 l225 3 0
45 0 45 -175 5 -175 5 -5 390 -5 390 -45 3 c-26 2 -50 -2 -58 -10z"/>
<path d="M795 973 c-141 -51 -205 -155 -205 -333 0 -155 47 -251 149 -303 49
-24 65 -27 156 -27 89 0 107 3 153 26 108 54 164 158 166 309 1 156 -53 264
-160 315 -63 31 -191 37 -259 13z m188 -107 c76 -31 113 -121 105 -251 -6 -95
-36 -152 -98 -182 -92 -47 -203 -17 -250 67 -22 39 -25 57 -25 140 0 83 3 102
26 145 32 64 83 95 157 95 29 0 67 -6 85 -14z"/>
<path d="M1525 973 c-141 -51 -205 -155 -205 -333 0 -155 47 -251 149 -303 49
-24 65 -27 156 -27 89 0 107 3 153 26 108 54 164 158 166 309 1 157 -53 264
-161 315 -67 31 -189 37 -258 13z m188 -107 c76 -31 113 -121 105 -251 -6 -95
-36 -152 -98 -182 -92 -47 -203 -17 -250 67 -22 39 -25 57 -25 140 0 83 3 102
26 145 32 64 83 95 157 95 29 0 67 -6 85 -14z"/>
<path d="M4323 972 c-103 -37 -158 -101 -189 -222 -19 -76 -14 -187 12 -265
24 -68 94 -137 164 -160 99 -33 333 -8 362 38 4 7 8 26 8 44 0 48 -21 54 -99
27 -175 -62 -309 -7 -328 135 l-5 40 212 3 212 3 20 25 c17 21 19 34 14 80
-12 121 -63 202 -151 244 -58 28 -167 31 -232 8z m181 -107 c37 -18 76 -79 76
-119 l0 -26 -165 0 c-125 0 -165 3 -165 13 1 47 59 121 110 140 30 11 113 7
144 -8z"/>
<path d="M4982 975 c-98 -30 -155 -111 -156 -219 0 -38 6 -73 16 -94 16 -31
16 -34 -8 -75 -37 -65 -28 -146 19 -179 6 -3 -4 -23 -22 -45 l-32 -38 52 -3
c36 -2 62 3 90 17 55 29 200 29 289 1 34 -11 83 -20 107 -20 41 0 44 2 38 23
-10 35 -79 95 -124 107 -23 6 -100 14 -171 19 -142 8 -169 18 -155 61 5 17 12
20 28 15 12 -4 60 -10 107 -12 78 -4 89 -2 140 24 36 18 65 43 85 71 27 39 30
51 30 120 0 42 -4 87 -8 100 -7 20 -5 22 22 22 16 0 37 7 45 16 19 19 21 68 4
81 -22 17 -346 24 -396 8z m179 -123 c24 -21 32 -39 36 -73 11 -95 -51 -157
-146 -146 -65 7 -101 49 -101 118 0 56 21 101 54 118 12 5 45 10 73 10 44 1
58 -4 84 -27z"/>
<path d="M2851 966 c-8 -9 -11 -104 -9 -327 l3 -314 55 0 55 0 3 314 c2 223
-1 318 -9 327 -6 8 -28 14 -49 14 -21 0 -43 -6 -49 -14z"/>
<path d="M5522 968 c-9 -9 -12 -74 -12 -233 0 -249 9 -300 63 -362 42 -48 82
-63 169 -63 72 0 146 23 162 49 10 16 26 14 26 -3 0 -39 79 -63 108 -34 17 17
17 629 0 646 -7 7 -28 12 -48 12 -20 0 -41 -5 -48 -12 -9 -9 -12 -73 -12 -229
0 -246 1 -244 -89 -300 -73 -47 -150 -37 -187 24 -17 29 -19 57 -22 262 -2
141 -7 235 -14 242 -13 16 -80 17 -96 1z"/>
<path d="M6252 968 c-9 -9 -12 -94 -12 -323 0 -229 3 -314 12 -323 16 -16 80
-16 96 0 9 9 12 94 12 323 0 229 -3 314 -12 323 -16 16 -80 16 -96 0z"/>
<path d="M3102 708 c-7 -7 -12 -27 -12 -45 0 -49 20 -55 191 -51 161 3 169 6
169 59 0 14 -5 30 -12 37 -17 17 -319 17 -336 0z"/>
<path d="M4790 236 c0 -39 33 -92 77 -122 47 -31 140 -48 241 -42 132 8 224
56 258 135 25 57 20 63 -44 63 -49 0 -59 -3 -67 -22 -26 -56 -128 -86 -235
-69 -76 13 -110 33 -110 66 0 24 -3 25 -60 25 l-60 0 0 -34z"/>
</g>
</svg>
